<svg xmlns="http://www.w3.org/2000/svg" height="1200" width="1600" version="1.1" xmlns:xlink="http://www.w3.org/1999/xlink" xmlns:svgjs="http://svgjs.com/svgjs"><rect fill="#f3ebe9" width="1600" height="1200"></rect><g><path d="M576.36 291.83H1168.54C1192.26 291.83 1211.49 311.06 1211.49 334.79V850.63C1211.49 874.35 1192.26 893.58 1168.54 893.58H576.36C552.63 893.58 533.4 874.35 533.4 850.63V334.79C533.4 311.06 552.63 291.83 576.36 291.83Z" fill="#231f20" opacity="1" stroke-width="4" stroke="none"></path><path d="M1212.64 745.3H533.4" stroke="#613945" stroke-width="4" stroke-linecap="round" stroke-linejoin="round" opacity="1" fill="none"></path><path d="M576.17 291.83H1168.35C1192.07 291.83 1211.3 311.06 1211.3 334.79V379.85H533.21V334.79C533.21 311.06 552.44 291.83 576.17 291.83Z" fill="#3c2c5b" opacity="1" stroke-width="4" stroke="none"></path><path d="M586.98 353.06C595.43 353.06 602.28 346.21 602.28 337.76 602.28 329.3 595.43 322.45 586.98 322.45 578.52 322.45 571.67 329.3 571.67 337.76 571.67 346.21 578.52 353.06 586.98 353.06Z" fill="#231f20" opacity="1" stroke-width="4" stroke="none"></path><path d="M636.72 353.06C645.18 353.06 652.03 346.21 652.03 337.76 652.03 329.3 645.18 322.45 636.72 322.45 628.27 322.45 621.42 329.3 621.42 337.76 621.42 346.21 628.27 353.06 636.72 353.06Z" fill="#231f20" opacity="1" stroke-width="4" stroke="none"></path><path d="M686.47 353.06C694.93 353.06 701.78 346.21 701.78 337.76 701.78 329.3 694.93 322.45 686.47 322.45 678.01 322.45 671.16 329.3 671.16 337.76 671.16 346.21 678.01 353.06 686.47 353.06Z" fill="#231f20" opacity="1" stroke-width="4" stroke="none"></path></g><g><path d="M909.3 572.46C928.44 495.42 926.32 428.59 904.58 423.19 882.83 417.79 849.68 475.86 830.55 552.89 811.41 629.92 813.53 696.75 835.27 702.15 857.02 707.55 890.16 649.49 909.3 572.46Z" stroke="#ffffff" stroke-width="4" stroke-linecap="round" stroke-linejoin="round" opacity="1" fill="none"></path><path d="M972.79 662.26C988.34 646.13 954.62 588.4 897.48 533.32 840.34 478.23 781.41 446.65 765.87 462.78 750.31 478.91 784.03 536.64 841.18 591.73 898.32 646.81 957.24 678.39 972.79 662.26Z" stroke="#ffffff" stroke-width="4" stroke-linecap="round" stroke-linejoin="round" opacity="1" fill="none"></path><path d="M881.13 601.6C957.4 579.66 1014.22 544.41 1008.02 522.88 1001.83 501.35 934.97 501.68 858.69 523.63 782.42 545.58 725.61 580.83 731.8 602.35 737.99 623.89 804.85 623.55 881.13 601.6Z" stroke="#ffffff" stroke-width="4" stroke-linecap="round" stroke-linejoin="round" opacity="1" fill="none"></path><path d="M869.92 585.22C882.39 585.22 892.51 575.11 892.51 562.63 892.51 550.15 882.39 540.04 869.92 540.04 857.44 540.04 847.33 550.15 847.33 562.63 847.33 575.11 857.44 585.22 869.92 585.22Z" fill="#61ccff" opacity="1" stroke-width="4" stroke="none"></path><path d="M775.9 522.93C782.37 522.93 787.63 517.68 787.63 511.2 787.63 504.72 782.37 499.47 775.9 499.47 769.42 499.47 764.17 504.72 764.17 511.2 764.17 517.68 769.42 522.93 775.9 522.93Z" fill="#ffc930" opacity="1" stroke-width="4" stroke="none"></path><path d="M979.9 571.47C986.37 571.47 991.62 566.23 991.62 559.75 991.62 553.27 986.37 548.02 979.9 548.02 973.42 548.02 968.17 553.27 968.17 559.75 968.17 566.23 973.42 571.47 979.9 571.47Z" fill="#ffc930" opacity="1" stroke-width="4" stroke="none"></path><path d="M817.43 673.47C823.9 673.47 829.16 668.22 829.16 661.74 829.16 655.26 823.9 650.02 817.43 650.02 810.95 650.02 805.7 655.26 805.7 661.74 805.7 668.22 810.95 673.47 817.43 673.47Z" fill="#ffc930" opacity="1" stroke-width="4" stroke="none"></path></g><g><path d="M1123.96 789.76V837.63" stroke="#ffc930" stroke-width="4" stroke-linecap="round" stroke-linejoin="round" opacity="1" fill="none"></path><path d="M1147.89 813.7H1100.03" stroke="#ffc930" stroke-width="4" stroke-linecap="round" stroke-linejoin="round" opacity="1" fill="none"></path><path d="M947.15 841.54C962.53 841.54 974.99 829.07 974.99 813.7 974.99 798.32 962.53 785.86 947.15 785.86 931.77 785.86 919.31 798.32 919.31 813.7 919.31 829.07 931.77 841.54 947.15 841.54Z" fill="#ffffff" opacity="1" stroke-width="4" stroke="none"></path><path d="M837.64 786.83H869.1C875.25 786.83 880.24 791.82 880.24 797.97V829.43C880.24 835.58 875.25 840.56 869.1 840.56H837.64C831.49 840.56 826.51 835.58 826.51 829.43V797.97C826.51 791.82 831.49 786.83 837.64 786.83Z" fill="#61ccff" opacity="1" stroke-width="4" stroke="none"></path><path d="M780.69 810.77L745.82 787.52C744.26 786.44 742.11 786.93 741.03 788.49 740.64 789.08 740.45 789.67 740.45 790.35V836.85C740.45 838.71 742.01 840.27 743.87 840.27 744.55 840.27 745.23 840.07 745.72 839.68L780.6 816.43C782.16 815.36 782.55 813.31 781.57 811.74 781.38 811.35 781.08 811.06 780.69 810.77Z" fill="#ffffff" opacity="1" stroke-width="4" stroke="none"></path></g><g><path d="M1240.41 735.81C1276.31 735.81 1305.41 706.71 1305.41 670.82 1305.41 634.92 1276.31 605.82 1240.41 605.82 1204.51 605.82 1175.41 634.92 1175.41 670.82 1175.41 706.71 1204.51 735.81 1240.41 735.81Z" fill="#61ccff" opacity="1" stroke-width="4" stroke="none"></path><path d="M1250.23 640.1V674.01C1250.23 679.45 1245.85 683.83 1240.41 683.83 1234.97 683.83 1230.59 679.45 1230.59 674.01V640.1C1230.59 634.66 1234.97 630.28 1240.41 630.28 1245.85 630.22 1250.23 634.66 1250.23 640.1Z" fill="#ffffff" opacity="1" stroke-width="4" stroke="none"></path><path d="M1240.41 711.35C1245.83 711.35 1250.23 706.96 1250.23 701.53 1250.23 696.11 1245.83 691.71 1240.41 691.71 1234.99 691.71 1230.59 696.11 1230.59 701.53 1230.59 706.96 1234.99 711.35 1240.41 711.35Z" fill="#ffffff" opacity="1" stroke-width="4" stroke="none"></path></g><g><path d="M324.82 337.7H265.06L311.2 282.04V379.52" stroke="#3c2c5b" stroke-width="4" stroke-linecap="round" stroke-linejoin="round" opacity="1" fill="none"></path><path d="M467.57 337.7H407.7L453.95 282.04V379.52" stroke="#3c2c5b" stroke-width="4" stroke-linecap="round" stroke-linejoin="round" opacity="1" fill="none"></path><path d="M361.67 282.04H372.26C383.6 282.04 392.79 291.23 392.79 302.58V358.01C392.79 369.36 383.6 378.54 372.26 378.54H361.67C350.32 378.54 341.14 369.36 341.14 358.01V302.58C341.14 291.23 350.32 282.04 361.67 282.04Z" stroke="#3c2c5b" stroke-width="4" stroke-linecap="round" stroke-linejoin="round" opacity="1" fill="none"></path></g><g><path d="M791.91 190.18C805.55 190.83 820.23 190.96 850.38 174.59 903.01 146 929.19 141.85 932.89 155.1 936.14 166.8 908.2 184.99 896.51 196.68 871.76 221.44 877.93 238.33 906.26 233.72 934.19 229.17 951.09 212.92 974.47 236.31" stroke="#231f20" stroke-width="4" stroke-linecap="round" stroke-linejoin="round" opacity="1" fill="none"></path></g><g><path d="M199.89 637.4C211.98 580.24 244.71 511.51 304.1 524.88 379.52 541.93 397.17 706.48 352.52 702.02 314.3 698.16 321.93 536.36 413.71 551.62" stroke="#231f20" stroke-width="4" stroke-linecap="round" stroke-linejoin="round" opacity="1" fill="none"></path></g><g><path d="M1384.84 839.91C1343.06 822.37 1278.52 807.24 1262.58 852.95 1246.63 898.66 1312.56 1024.55 1359.26 1009.37 1402.98 995.12 1314.37 894.24 1239.01 897.51 1163.65 900.79 1183.35 1008.76 1215.17 992.47 1235.78 981.93 1212.27 926.78 1136.32 942.29" stroke="#231f20" stroke-width="4" stroke-linecap="round" stroke-linejoin="round" opacity="1" fill="none"></path></g><g><path d="M585.85 193.92V230.67" stroke="#61ccff" stroke-width="4" stroke-linecap="round" stroke-linejoin="round" opacity="1" fill="none"></path><path d="M604.23 212.29H567.47" stroke="#61ccff" stroke-width="4" stroke-linecap="round" stroke-linejoin="round" opacity="1" fill="none"></path></g><g><path d="M946.08 959.76V997.19" stroke="#ffffff" stroke-width="4" stroke-linecap="round" stroke-linejoin="round" opacity="1" fill="none"></path><path d="M964.8 978.47H927.36" stroke="#ffffff" stroke-width="4" stroke-linecap="round" stroke-linejoin="round" opacity="1" fill="none"></path></g><g><path d="M284.17 778.77V820.98" stroke="#ffffff" stroke-width="4" stroke-linecap="round" stroke-linejoin="round" opacity="1" fill="none"></path><path d="M305.28 799.88H263.06" stroke="#ffffff" stroke-width="4" stroke-linecap="round" stroke-linejoin="round" opacity="1" fill="none"></path></g><g><path d="M1318.58 476.56V524.16" stroke="#ffffff" stroke-width="4" stroke-linecap="round" stroke-linejoin="round" opacity="1" fill="none"></path><path d="M1342.38 500.36H1294.78" stroke="#ffffff" stroke-width="4" stroke-linecap="round" stroke-linejoin="round" opacity="1" fill="none"></path></g><g><path d="M570.78 1039.5C570.7 1039.5 570.7 1039.5 570.78 1039.5 565.93 1029.62 561.26 1017.1 558 1003.96 556.14 996.29 554.91 986.5 553.59 977.77 553.59 977.68 553.5 977.77 553.59 977.77L640.2 960.04C640.28 960.04 640.28 960.04 640.28 960.13 642.93 988 659.86 998.93 674.77 1008.55 689.23 1016.13 694 1030.95 692.76 1039.41 692.76 1039.41 692.76 1039.5 692.67 1039.5 688.62 1039.5 573.52 1039.5 570.78 1039.5Z" fill="#a56250" opacity="1" stroke-width="4" stroke="none"></path><path d="M565.58 1028.04C562.67 1021.16 560.02 1012.43 558 1004.14 558 1004.05 558 1004.05 558.08 1004.05L628.73 1014.9C628.82 1014.9 628.82 1014.81 628.82 1014.81L621.23 996.2C617.26 986.67 624.76 975.47 635.08 975.74 635.08 975.74 642.93 975.74 643.64 975.74 643.64 975.74 643.72 975.74 643.72 975.82 649.99 993.02 663.3 1001.4 674.95 1008.9 675.92 1009.43 676.71 1010.05 677.5 1010.57 684.38 1014.46 690.38 1023.45 691.44 1028.13 691.44 1028.21 691.44 1028.21 691.35 1028.21 688.17 1028.3 634.73 1032.18 598.57 1032.18 579.96 1032.01 566.29 1028.3 565.58 1028.04Z" fill="#61ccff" opacity="1" stroke-width="4" stroke="none"></path><path d="M570.51 1039.41C568.84 1035.98 567.25 1032.18 565.66 1028.13 565.66 1028.04 565.66 1028.04 565.75 1028.04H691.34C691.34 1028.04 691.43 1028.04 691.43 1028.13 692.75 1031.21 692.93 1038 692.66 1039.5 692.66 1039.5 692.66 1039.59 692.58 1039.59 688.52 1039.5 573.33 1039.5 570.51 1039.41 570.51 1039.5 570.51 1039.5 570.51 1039.41Z" fill="#231f20" opacity="1" stroke-width="4" stroke="none"></path><path d="M613.21 1003.87C611.09 994.88 609.41 985.53 608.27 976.53 608.27 976.44 608.27 976.44 608.36 976.44L681.3 957.57 694.88 956.24C694.97 956.24 694.97 956.24 694.97 956.33 695.23 963.39 696.47 969.56 698.58 975.56 698.58 975.56 698.58 975.56 698.58 975.65L688.09 1025.57C688.09 1025.66 688 1025.66 688 1025.66L613.21 1003.87C613.21 1003.96 613.21 1003.96 613.21 1003.87Z" fill="#a56250" opacity="1" stroke-width="4" stroke="none"></path><path d="M415.91 877.84V877.75C416.88 876.25 438.84 845.12 466.01 811.69 512.22 754.45 537.8 733.9 551.12 726.76 585.78 707.26 628.99 720.76 645.66 758.51 662.86 795.99 645.49 890.36 640.37 944.16 639.93 949.54 639.93 954.83 640.37 960.13 640.37 960.13 640.37 960.21 640.28 960.21L554.03 980.41C553.94 980.41 553.94 980.41 553.94 980.32 551.56 964.18 550.32 947.78 550.23 931.55 550.23 931.46 550.15 931.46 550.06 931.55 541.68 954.66 526.07 980.32 511.43 996.64 511.43 996.64 511.34 996.64 511.25 996.64 508.08 992.41 418.03 880.4 415.91 877.84Z" fill="#d69e00" opacity="1" stroke-width="4" stroke="none"></path><path d="M554.02 980.15C551.64 964.01 550.31 947.6 550.31 931.2 550.31 931.11 550.14 931.11 550.14 931.2 549.08 933.93 548.2 936.14 548.02 934.2 548.9 921.14 573.95 833.83 600.94 835.24 647.86 837.27 642.13 916.91 640.63 944.07 640.19 949.45 640.19 954.75 640.63 960.04 640.63 960.04 640.63 960.13 640.54 960.13L607.11 967.98 554.11 980.23C554.02 980.23 554.02 980.23 554.02 980.15Z" fill="#000000" opacity="0.3" stroke-width="4" stroke="none"></path><path d="M446.78 1039.5C403.39 1040.74 363.35 1011.99 348.26 972.39 344.91 963.48 349.23 938.34 349.41 937.46 349.15 936.84 341.56 920.26 342.88 908.27 344.47 893.8 347.73 878.81 352.5 863.46 352.5 863.46 352.5 863.37 352.59 863.37L410 860.55 470.59 877.75H470.68C472.89 874.75 560.02 751.28 605.89 726.76 640.55 707.26 683.76 720.76 700.43 758.51 719.4 800.22 696.82 899.09 694.88 956.16 694.88 956.16 694.88 956.24 694.79 956.24 693.47 956.6 669.74 962.07 647.52 967.27 628.11 971.77 609.68 976.09 608.27 976.44 608.18 976.44 608.18 976.44 608.18 976.35 606.06 961.54 605 946.28 605 931.37 605 931.29 604.92 931.29 604.83 931.37 575.37 1005.28 529.24 1045.15 446.78 1039.5Z" fill="#ffc930" opacity="1" stroke-width="4" stroke="none"></path><path d="M620.52 1027.95C617.7 1020.45 615.14 1012.34 613.29 1004.05 613.29 1003.96 613.29 1003.96 613.37 1003.96L683.58 1014.81C683.67 1014.81 683.67 1014.72 683.67 1014.72L676.08 996.11C672.11 986.58 679.61 975.38 689.93 975.65 689.93 975.65 697.87 975.65 698.57 975.65 698.57 975.65 698.66 975.65 698.66 975.74 704.92 992.93 721.42 1001.31 733.15 1008.81 734.12 1009.34 734.91 1009.96 735.7 1010.49 742.58 1014.37 748.49 1023.45 749.46 1028.04 749.46 1028.13 749.46 1028.13 749.37 1028.13 747.26 1028.21 728.74 1032.8 692.58 1032.8 669.03 1032.8 622.28 1028.3 620.52 1027.95 620.52 1028.04 620.52 1028.04 620.52 1027.95Z" fill="#61ccff" opacity="1" stroke-width="4" stroke="none"></path><path d="M625.38 1039.41C623.7 1035.98 622.2 1032.18 620.62 1028.13 620.62 1028.04 620.62 1028.04 620.7 1028.04L749.38 1028.13C749.38 1028.13 749.47 1028.13 749.47 1028.21 750.79 1031.48 750.97 1038.27 750.62 1039.5 750.62 1039.5 750.62 1039.59 750.53 1039.59 746.56 1039.5 628.2 1039.5 625.38 1039.41 625.38 1039.5 625.38 1039.5 625.38 1039.41Z" fill="#231f20" opacity="1" stroke-width="4" stroke="none"></path><path d="M605 930.84C625.37 880.57 650.15 790.43 650.15 790.43" stroke="#362e16" stroke-width="4" stroke-linecap="round" stroke-linejoin="round" opacity="1" fill="none"></path><path d="M608.26 976.35C606.14 961.36 605.08 945.93 605 930.84 605.35 929.87 626.52 880.84 649.98 790.52 649.98 790.43 650.06 790.43 650.15 790.52 659.59 798.99 653.68 831.18 651.56 849.88 648.65 873.16 644.77 905.18 647.6 967.18 647.6 967.18 647.6 967.27 647.51 967.27 645.74 967.71 610.38 975.82 608.26 976.35 608.26 976.44 608.26 976.35 608.26 976.35Z" fill="#362e16" opacity="0.3" stroke-width="4" stroke="none"></path><path d="M619.11 817.33C619.11 817.25 619.11 817.25 619.11 817.33 647.68 807.02 666.38 801.19 693.81 801.02 701.48 801.02 707.83 801.64 711.01 802.69 718.06 805.08 718.06 812.4 713.74 815.13 713.65 815.13 713.65 815.22 713.74 815.22 716.92 818.04 720.27 825.01 712.77 829.24 712.77 829.24 712.68 829.33 712.77 829.33 714.8 833.47 715.07 840.71 706.6 842.56 706.6 842.56 699.01 843.79 696.72 844.23 696.63 844.23 696.63 844.41 696.72 844.41 699.9 844.85 713.13 847.59 710.3 854.02 708.54 858.26 689.05 859.32 688.25 859.32 687.81 859.67 677.23 866.55 663.21 866.55 661 866.55 657.83 866.28 655.97 865.93 655.97 865.93 655.97 865.93 655.89 865.93 655.53 866.11 652.62 868.31 647.51 872.37 645.3 874.05 639.3 878.9 637.36 880.48 637.28 880.48 637.28 880.48 637.28 880.48 636.39 878.54 620.78 850.76 620.43 850.14L619.11 817.33Z" fill="#a56250" opacity="1" stroke-width="4" stroke="none"></path><path d="M466.01 639L494.32 609.72C507.19 594.2 528.45 578.85 556.76 573.12 580.75 567.03 595.92 580.97 601.92 589.17 607.74 597.19 612.5 628.77 612.68 629.74 612.41 630.36 605.45 644.73 601.92 651.61V651.7C606.42 656.9 606.77 664.14 595.66 663.25 595.66 663.25 595.57 663.25 595.57 663.34 586.04 690.68 566.2 695.27 547.68 680.98H547.59C547.15 681.51 543.97 685.39 541.59 688.3 541.24 688.66 540.97 689.1 540.71 689.36 539.74 690.51 539.03 691.39 538.86 691.65H538.77L466.09 639.09C465.92 639.09 465.92 639.09 466.01 639Z" fill="#a56250" opacity="1" stroke-width="4" stroke="none"></path><path d="M549.18 919.91C536.65 919.91 518.48 913.91 503.49 885.42 495.02 869.37 491.23 853.05 490.79 851.11 490.79 851.03 490.7 851.03 490.61 851.11L471.39 878.37H471.3L352.67 863.37C352.59 863.37 352.59 863.29 352.59 863.29 354.61 857.2 363.17 829.68 372.52 798.99 383.45 763.09 395.45 722.96 399.24 708.23 400.21 707.18 463.89 641.29 465.83 639.26H465.92C468.12 640.76 537.98 687.33 540.62 689.36 540.62 689.36 540.71 689.45 540.62 689.45 539.92 690.42 534.71 698 534.09 698.89 534.09 698.97 534.09 698.97 534.09 698.97 545.38 703.56 568.05 720.49 570.26 740.51 574.49 767.77 576.34 831.53 576.43 834.89 576.43 834.97 576.52 834.97 576.52 834.97 577.49 834.53 583.84 831.62 592.92 827.74 600.24 824.65 609.33 820.86 618.85 817.25 618.94 817.25 618.94 817.25 618.94 817.33L637.02 880.57V880.66C593.19 912.41 568.31 918.85 549.18 919.91Z" fill="#61ccff" opacity="1" stroke-width="4" stroke="none"></path><path d="M627.67 588.11C623.26 587.05 618.15 587.05 612.59 588.38H612.5C608 579.56 591.16 563.77 569.2 562 572.64 559.36 575.46 555.3 577.58 550.1 577.93 549.3 578.28 548.42 578.55 547.54 586.66 524.08 570.61 481.39 545.82 485.63 529.51 489.68 524.75 510.06 528.19 529.28 530.92 544.63 538.95 559.18 550.5 564.03 527.22 571.26 506.84 594.02 496.43 606.81 495.55 607.78 494.85 608.75 494.23 609.54H494.14C492.64 608.48 466.01 589.26 434.26 589.35 430.37 589.35 426.58 589.61 422.88 590.05 393.86 594.11 373.84 613.6 368.81 630.71 362.73 647.03 364.32 662.37 364.4 663.52 364.4 663.52 364.4 663.61 364.32 663.61 363.43 663.87 353.64 666.78 343.85 675.51 335.3 683.01 329.92 692.01 326.66 701 323.39 710 322.16 718.99 321.98 726.4 319.51 765.65 350.91 792.11 372.69 798.81 372.78 798.81 372.78 798.81 372.78 798.73 373.22 797.67 378.25 784.79 383.1 772.97 385.48 767.24 387.78 761.68 389.36 757.98L389.45 757.89C426.23 762.74 457.98 749.95 475.36 732.22 488.41 719.26 496.88 699.86 498.55 688.83 498.55 688.83 498.55 688.74 498.64 688.74 538.42 681.69 539.21 640.85 538.77 639.18 533.92 633.97 530.48 622.33 532.68 613.95 534.36 605.4 541.15 598.96 549.44 599.14 562.93 598.87 570.96 615.72 569.81 624.8V624.89C570.52 625.42 590.98 632.03 607.65 632.12 621.67 632.12 643.81 625.07 643.64 606.81 642.93 597.11 636.84 590.23 627.67 588.11Z" fill="#df85af" opacity="1" stroke-width="4" stroke="none"></path><path d="M558.34 565.8C543.79 565.8 531.7 549.48 528.18 529.64 528.18 529.55 528.26 529.46 528.35 529.55 531.79 533.34 535.41 536.87 539.64 539.6 551.81 547.36 565.48 551.07 578.45 547.54 578.54 547.54 578.54 547.63 578.54 547.63 574.57 558.39 568.04 565.8 558.34 565.8Z" fill="#6f6d6e" opacity="0.3" stroke-width="4" stroke="none"></path><path d="M367.84 748.01C375.6 754.01 384.95 756.92 389.1 757.98 389.19 757.98 389.19 758.07 389.19 758.07 387.16 762.74 385.75 766.09 382.92 772.97 382.92 773.06 382.84 773.06 382.75 773.06 372.87 766.71 368.02 750.13 367.67 748.1 367.67 748.01 367.75 748.01 367.84 748.01Z" fill="#6f6d6e" opacity="0.3" stroke-width="4" stroke="none"></path><path d="M348.26 972.39C340.41 952.36 340.85 928.82 342.88 908.35 342.88 908.27 342.97 908.27 342.97 908.27 344.91 908.53 380.37 913.38 382.31 913.65 382.4 913.65 382.4 913.73 382.4 913.73L375.52 948.66C371.02 975.12 348.44 972.39 348.44 972.39H348.26Z" fill="#d69e00" opacity="1" stroke-width="4" stroke="none"></path><path d="M444.4 916.29C449.34 893.54 442.99 875.81 442.55 874.75V874.66C473.94 844.06 481.09 804.63 482.06 798.37 482.06 798.28 482.23 798.28 482.23 798.37 483.38 819.8 490.44 849.7 490.7 850.94V851.03L444.57 916.38C444.49 916.47 444.4 916.38 444.4 916.29Z" fill="#3089b3" opacity="0.3" stroke-width="4" stroke="none"></path><path d="M471.29 878.37C458.32 896.09 444.48 916.38 444.48 916.38" stroke="#362e16" stroke-width="4" stroke-linecap="round" stroke-linejoin="round" opacity="1" fill="none"></path><path d="M547.67 616.33L552.08 627.8" stroke="#000000" stroke-width="4" stroke-linecap="round" stroke-linejoin="round" opacity="1" fill="none"></path><path d="M586.04 662.81C583.22 661.14 579.96 660.96 576.87 661.84" stroke="#000000" stroke-width="4" stroke-linecap="round" stroke-linejoin="round" opacity="1" fill="none"></path><path d="M591.86 641.29C595.57 641.38 595.57 646.85 591.86 646.94 588.16 646.85 588.16 641.38 591.86 641.29Z" fill="#000000" opacity="1" stroke-width="4" stroke="none"></path><path d="M541.86 703.03C537.45 700.3 534.18 698.89 534.18 698.89" stroke="#3089b3" stroke-width="4" stroke-linecap="round" stroke-linejoin="round" opacity="1" fill="none"></path><path d="M713.75 815.31C701.32 815.31 686.41 817.16 686.41 817.16" stroke="#000000" stroke-width="4" stroke-linecap="round" stroke-linejoin="round" opacity="1" fill="none"></path><path d="M712.78 829.33C704.84 829.33 688.17 831.01 688.17 831.01" stroke="#000000" stroke-width="4" stroke-linecap="round" stroke-linejoin="round" opacity="1" fill="none"></path><path d="M696.63 844.32C693.63 844.41 691.25 844.76 688.34 845.38" stroke="#000000" stroke-width="4" stroke-linecap="round" stroke-linejoin="round" opacity="1" fill="none"></path><path d="M576.61 834.97L576.87 856.41" stroke="#3089b3" stroke-width="4" stroke-linecap="round" stroke-linejoin="round" opacity="1" fill="none"></path><path d="M389.1 758.07C377.72 754.98 367.84 748.1 367.84 748.1" stroke="#000000" stroke-width="4" stroke-linecap="round" stroke-linejoin="round" opacity="1" fill="none"></path><path d="M576.61 835.06C577.22 834.71 583.84 831.8 592.83 827.92 592.92 827.92 593.01 828.01 592.92 828.01L577.05 856.49C577.05 856.58 576.87 856.58 576.87 856.49L576.61 835.06C576.52 835.06 576.52 835.06 576.61 835.06Z" fill="#3089b3" opacity="0.3" stroke-width="4" stroke="none"></path><path d="M537.36 669.96C540.27 675.16 546.97 680.28 547.68 680.81V680.89L541.77 688.13C541.68 688.21 541.59 688.13 541.59 688.13L537.18 670.05C537.18 669.96 537.27 669.87 537.36 669.96Z" fill="#000000" opacity="0.3" stroke-width="4" stroke="none"></path><path d="M326.57 700.91C337.59 671.72 362.37 664.31 364.14 663.78 364.23 663.78 364.23 663.78 364.23 663.87 364.4 665.37 367.49 684.07 377.9 694.56 377.99 694.65 377.9 694.74 377.81 694.74 353.64 688.74 329.04 699.86 326.66 701 326.66 701.09 326.57 701 326.57 700.91Z" fill="#6f6d6e" opacity="0.3" stroke-width="4" stroke="none"></path><path d="M470.76 637.41C460.18 600.02 427.72 591.29 423.22 590.23 423.13 590.23 423.13 590.05 423.22 590.05 459.03 585.02 492.02 607.87 493.96 609.63V609.72C492.81 611.04 472.52 635.47 470.94 637.41 470.94 637.5 470.85 637.5 470.76 637.41Z" fill="#6f6d6e" opacity="0.3" stroke-width="4" stroke="none"></path><path d="M612.49 588.46C612.49 588.38 612.49 588.38 612.58 588.38 618.67 586.96 623.34 587.14 627.57 588.11 627.66 588.11 627.66 588.2 627.66 588.2 625.9 597.72 621.14 606.1 619.64 608.57 619.46 608.84 619.02 608.84 618.93 608.48 618.14 605.4 615.14 594.28 612.49 588.46Z" fill="#6f6d6e" opacity="0.3" stroke-width="4" stroke="none"></path><path d="M547.77 680.98C539.92 674.81 537.18 669.96 537.18 669.96" stroke="#000000" stroke-width="4" stroke-linecap="round" stroke-linejoin="round" opacity="1" fill="none"></path><path d="M490.79 850.94C484.79 825.71 484.18 816.36 482.32 798.37" stroke="#3089b3" stroke-width="4" stroke-linecap="round" stroke-linejoin="round" opacity="1" fill="none"></path><path d="M493.96 609.81L486.11 619.33" stroke="#000000" stroke-width="4" stroke-linecap="round" stroke-linejoin="round" opacity="1" fill="none"></path><path d="M364.22 663.87C366.95 680.54 372.24 686.27 377.89 694.56" stroke="#000000" stroke-width="4" stroke-linecap="round" stroke-linejoin="round" opacity="1" fill="none"></path><path d="M612.49 588.46C614.52 593.58 616.55 598.78 618.93 608.48" stroke="#000000" stroke-width="4" stroke-linecap="round" stroke-linejoin="round" opacity="1" fill="none"></path></g><g><path d="M1147.07 164.6H1264.24C1285.97 164.6 1303.55 182.18 1303.55 203.91V321.08C1303.55 352.27 1294.37 381.25 1278.73 405.59 1250.91 448.87 1198.36 477.55 1147.07 477.55 1109.02 477.55 1073.86 463.64 1046.52 440.65 1012.42 411.97 990.59 369.08 990.59 321.08 990.59 234.63 1060.62 164.6 1147.07 164.6Z" fill="#ffc930" opacity="1" stroke-width="4" stroke="none"></path><path d="M1236.13 198.6L1269.55 232.02" stroke="#c4c4c4" stroke-width="4" stroke-linecap="round" stroke-linejoin="round" opacity="1" fill="none"></path><path d="M1269.55 198.6L1236.13 232.02" stroke="#c4c4c4" stroke-width="4" stroke-linecap="round" stroke-linejoin="round" opacity="1" fill="none"></path></g><g><path d="M1032.48 372.39L1032.65 371.93C1021.97 354.05 1013.17 341.59 1006.48 335.64 999.62 329.59 993.34 327.99 986.71 326.67L986.42 326.56C984.99 326.27 983.68 325.87 982.08 325.53L980.65 325.24C977.22 324.33 973.16 322.1 969.22 319.98L968.82 319.7C963.68 316.96 958.93 314.44 955.5 314.44 954.19 314.44 953.16 314.73 952.59 315.47 951.9 316.16 951.67 316.9 951.67 317.81 951.79 322.96 961.45 331.64 963.27 333.24 960.93 333.53 958.65 333.76 956.42 333.76 951.16 333.76 947.33 332.84 941.9 331.41L941.22 331.3C937.9 330.39 934.24 329.47 929.61 328.67 926.7 328.16 923.84 327.87 921.21 327.87 916.76 327.87 913.55 328.79 912.41 330.61 908.35 331.01 905.55 332.21 904.64 334.04 904.13 334.96 903.84 336.67 905.33 338.9 904.41 340.33 904.13 341.82 904.53 343.36 906.13 348.62 916.53 353.36 927.44 358.5L934.7 361.93C949.56 369.02 971.45 372.22 977.79 373.13H977.91C979.73 381.53 982.53 390.68 985.16 398.68L985.28 398.79 1032.48 372.39Z" fill="#eaa58b" opacity="1" stroke-width="4" stroke="none"></path><path d="M1189.3 326.27V326.16C1189.42 323.41 1189.59 319.7 1189.82 315.36 1189.93 312.84 1190.1 310.21 1190.22 307.3L1190.5 301.64C1191.42 282.55 1192.73 258.72 1192.5 249.06 1192.39 239.97 1180.16 239.46 1173.41 232.72 1166.44 225.86 1164.33 225.57 1154.21 225.57 1134.72 225.57 1120.72 224.83 1112.04 233.29 1107.01 240.66 1106.66 253.69 1106.26 263.18 1106.15 267.41 1105.86 272.15 1105.35 275.41 1103.52 285.69 1102.61 296.32 1108.49 304.78 1113.52 311.75 1121.41 313.18 1127.18 313.18 1128.89 313.18 1130.49 313.07 1131.64 312.9L1130.72 327.24 1119.64 369.7 1205.59 364.96 1189.3 326.27Z" fill="#eaa58b" opacity="1" stroke-width="4" stroke="none"></path><path d="M1144.9 307.98C1140.5 309.93 1133.3 312.38 1131.87 312.84 1131.7 312.9 1131.64 313.01 1131.59 313.18L1131.07 321.3C1131.07 321.64 1131.47 321.81 1131.7 321.58L1145.3 308.61C1145.59 308.33 1145.3 307.81 1144.9 307.98Z" fill="#282625" opacity="0.2" stroke-width="4" stroke="none"></path><path d="M1112.55 269.24C1113.86 269.24 1114.95 268.15 1114.95 266.84 1114.95 265.52 1113.86 264.43 1112.55 264.43 1111.24 264.43 1110.15 265.52 1110.15 266.84 1110.15 268.15 1111.24 269.24 1112.55 269.24Z" fill="#30242a" opacity="1" stroke-width="4" stroke="none"></path><path d="M1131.64 270.15C1132.96 270.15 1134.04 269.06 1134.04 267.75 1134.04 266.43 1132.96 265.35 1131.64 265.35 1130.33 265.35 1129.24 266.43 1129.24 267.75 1129.24 269.06 1130.27 270.15 1131.64 270.15Z" fill="#30242a" opacity="1" stroke-width="4" stroke="none"></path><path d="M1131.64 312.9C1135.18 311.58 1139.18 310.21 1143.01 308.78" stroke="#282625" stroke-width="4" stroke-linecap="round" stroke-linejoin="round" opacity="1" fill="none"></path><path d="M1163.87 275.29L1156.21 280.67" stroke="#282625" stroke-width="4" stroke-linecap="round" stroke-linejoin="round" opacity="1" fill="none"></path><path d="M1119.64 287.92C1122.95 288.72 1126.21 287.01 1127.81 284.09" stroke="#282625" stroke-width="4" stroke-linecap="round" stroke-linejoin="round" opacity="1" fill="none"></path><path d="M1119.64 270.95C1118.61 273.69 1117.81 275.69 1120.55 276.89" stroke="#282625" stroke-width="4" stroke-linecap="round" stroke-linejoin="round" opacity="1" fill="none"></path><path d="M905.61 339.53C914.98 338.73 934.99 348.1 952.76 350.33 952.76 350.33 986.76 339.53 999.91 350.33" stroke="#282625" stroke-width="4" stroke-linecap="round" stroke-linejoin="round" opacity="1" fill="none"></path><path d="M913.39 331.01C917.22 331.01 945.11 338.79 952.88 339.59" stroke="#282625" stroke-width="4" stroke-linecap="round" stroke-linejoin="round" opacity="1" fill="none"></path><path d="M1032.48 371.42C1038.94 382.22 1043.4 391.02 1044.94 394.34 1045.34 393.65 1055.23 376.96 1070.77 360.33 1085.29 344.67 1106.43 326.1 1130.78 325.98 1130.78 325.98 1130.78 339.42 1155.3 339.24 1179.81 339.07 1189.3 325.98 1189.3 325.98 1234.22 329.47 1249.25 359.82 1249.37 360.1 1249.37 360.22 1261.08 382.73 1268.85 408.45 1281.88 451.37 1274.63 470.23 1266.23 478.4 1257.54 486.8 1243.82 491.03 1225.25 491.03 1211.7 491.03 1194.96 488.52 1177.07 483.95L1176.79 483.83 1177.87 469.6H1110.15L1105.12 418.62C1099.75 426.4 1090.78 437.6 1079.46 446.68 1066.83 456.97 1054.31 462.23 1042.6 462.23H1041.8C1025.85 461.94 1003.05 451.2 984.99 398.39L984.76 397.71 1032.48 371.42Z" fill="#61ccff" opacity="1" stroke-width="4" stroke="none"></path><path d="M1105.07 418.74C1101.87 423.37 1097.35 429.2 1091.92 435.08 1091.64 435.37 1091.12 435.08 1091.3 434.68 1093.3 429.54 1099.01 414.4 1102.9 400.85 1103.01 400.45 1103.58 400.51 1103.64 400.91L1105.18 418.51C1105.13 418.57 1105.13 418.68 1105.07 418.74Z" fill="#000000" opacity="0.2" stroke-width="4" stroke="none"></path><path d="M1105.12 418.62L1103.18 397.88" stroke="#000000" stroke-width="4" stroke-linecap="round" stroke-linejoin="round" opacity="1" fill="none"></path><path d="M1107.12 508.06C1112.66 508.06 1128.21 491.2 1132.78 486.06L1132.9 485.95C1133.3 485.95 1133.7 485.95 1133.92 486.06 1134.32 486.06 1134.72 486.06 1135.12 486.06 1144.1 486.06 1152.78 483.55 1160.56 478.8 1161.24 479.09 1166.84 481.15 1177.07 483.95L1178.79 484.4 1182.79 433.25H1182.67C1168.73 434.05 1148.44 435.6 1132.9 439.2 1119.58 442.34 1106.83 448 1096.26 455.66 1088.09 461.6 1081.4 468.46 1078.37 474.23 1075.06 480.29 1075.75 484.12 1076.95 486.23 1077.46 487.15 1077.97 487.66 1078.26 487.83 1077.75 490.58 1078.15 492.98 1079.29 494.4 1081 496.41 1083.52 496.75 1084.43 496.75H1084.55C1085.86 500.06 1088.26 501.61 1091.63 501.61 1097.18 501.61 1104.03 497.38 1106.66 495.66 1105.98 497.09 1102.83 504.23 1104.66 507.09 1105.12 507.66 1105.92 508.06 1107.12 508.06Z" fill="#eaa58b" opacity="1" stroke-width="4" stroke="none"></path><path d="M1106.66 495.66L1119.86 480.75" stroke="#282625" stroke-width="4" stroke-linecap="round" stroke-linejoin="round" opacity="1" fill="none"></path><path d="M1084.55 496.75C1084.55 496.75 1102.26 477.6 1112.66 469.54" stroke="#282625" stroke-width="4" stroke-linecap="round" stroke-linejoin="round" opacity="1" fill="none"></path><path d="M1078.26 487.83C1083.92 480.57 1098.15 465.43 1105.81 459.94" stroke="#282625" stroke-width="4" stroke-linecap="round" stroke-linejoin="round" opacity="1" fill="none"></path><path d="M1044.94 394.34L1042.94 409.42" stroke="#000000" stroke-width="4" stroke-linecap="round" stroke-linejoin="round" opacity="1" fill="none"></path><path d="M1064.6 367.25C1066.54 364.96 1068.6 362.67 1070.72 360.39 1085.23 344.73 1106.38 326.16 1130.72 326.04 1130.72 326.04 1130.72 339.47 1155.24 339.3 1179.76 339.13 1189.24 326.04 1189.24 326.04 1234.16 329.53 1249.19 359.87 1249.31 360.16 1249.31 360.27 1255.08 371.42 1261.25 386.96 1243.31 390.22 1228.56 375.36 1228.56 375.36 1228.56 375.36 1220.91 396.39 1198.27 398.05 1171.93 400.05 1161.53 374.16 1161.53 374.16 1161.53 374.16 1150.38 397.94 1125.12 395.71 1099.69 393.48 1104.55 362.56 1104.55 362.56 1104.55 362.56 1082.15 380.22 1064.6 367.25Z" fill="#ffffff" opacity="1" stroke-width="4" stroke="none"></path><path d="M1130.78 325.98C1130.78 325.98 1130.78 339.42 1155.3 339.24 1179.81 339.07 1189.3 325.98 1189.3 325.98" stroke="#8e8e8e" stroke-width="4" stroke-linecap="round" stroke-linejoin="round" opacity="1" fill="none"></path><path d="M1309.6 369.76C1310.8 349.19 1296.91 327.59 1269.48 322.73 1268.85 264.15 1209.42 262.21 1192.39 271.18 1192.67 262.61 1193.02 254.55 1193.02 249 1192.9 239.92 1188.56 231 1181.87 224.32 1174.9 217.46 1165.53 213.8 1155.41 213.8 1135.92 213.8 1120.32 220.49 1111.98 233 1110.04 236.15 1109.24 238.26 1108.55 241.29 1108.55 241.29 1108.49 241.63 1109.01 241.86 1111.12 242.89 1117.18 245.29 1127.29 245.29 1133.87 245.29 1140.72 244.38 1147.87 242.37 1144.44 250.66 1146.27 265.58 1149.47 268.44L1149.58 268.55 1149.7 268.44C1149.81 268.32 1158.5 263.18 1166.16 263.18 1170.61 263.18 1173.81 264.89 1175.64 268.55 1181.02 279.47 1166.67 292.15 1163.64 294.5 1163.53 294.61 1163.53 294.61 1163.53 294.61L1163.41 294.72V294.84C1151.98 358.96 1210.85 381.71 1249.14 360.45 1249.65 361.3 1261.31 384.33 1269.65 411.02 1269.65 411.08 1307.43 406.79 1309.6 369.76Z" fill="#30242a" opacity="1" stroke-width="4" stroke="none"></path><path d="M1198.56 401.37C1194.85 403.37 1192.39 407.08 1191.99 411.25L1190.04 432 1212.68 431.65 1198.56 401.37Z" fill="#000000" opacity="0.2" stroke-width="4" stroke="none"></path><path d="M1201.94 408.28L1212.34 431.37" stroke="#000000" stroke-width="4" stroke-linecap="round" stroke-linejoin="round" opacity="1" fill="none"></path><path d="M1182.79 433.25C1201.36 432.45 1223.82 431.6 1223.82 431.6" stroke="#000000" stroke-width="4" stroke-linecap="round" stroke-linejoin="round" opacity="1" fill="none"></path><path d="M1192.39 271.18L1191.76 284.04" stroke="#191416" stroke-width="4" stroke-linecap="round" stroke-linejoin="round" opacity="1" fill="none"></path><path d="M1269.49 322.73C1260.57 321.36 1253.72 323.58 1253.72 323.58" stroke="#191416" stroke-width="4" stroke-linecap="round" stroke-linejoin="round" opacity="1" fill="none"></path><path d="M1249.14 360.45C1253.65 357.87 1257.54 353.13 1257.54 353.13" stroke="#191416" stroke-width="4" stroke-linecap="round" stroke-linejoin="round" opacity="1" fill="none"></path></g></svg>